HIERARCHY
ROOT reference
{
	OFFSET 0.000000 0.000000 0.000000
	CHANNELS 6 Xposition Yposition Zposition Xrotation Yrotation Zrotation
	JOINT root
	{
		OFFSET 0.000000 88.868896 0.000000
		CHANNELS 3 Xrotation Yrotation Zrotation
		JOINT Hips
		{
			OFFSET 0.000000 0.000000 0.000000
			CHANNELS 3 Xrotation Yrotation Zrotation
			JOINT Spine
			{
				OFFSET 0.015310 -0.106941 0.009988
				CHANNELS 3 Xrotation Yrotation Zrotation
				JOINT Spine1
				{
					OFFSET -4.537591 17.417198 -4.533400
					CHANNELS 3 Xrotation Yrotation Zrotation
					JOINT Spine2
					{
						OFFSET -5.110762 16.696503 -6.299708
						CHANNELS 3 Xrotation Yrotation Zrotation
						JOINT Neck
						{
							OFFSET -8.035751 14.455307 -8.425188
							CHANNELS 3 Xrotation Yrotation Zrotation
							JOINT Head
							{
								OFFSET -5.472109 7.678009 -6.640421
								CHANNELS 3 Xrotation Yrotation Zrotation
								End Site
								{
									OFFSET 0.000000 0.100006 0.000000
								}
							}
						}
						JOINT RightShoulder
						{
							OFFSET -6.335630 13.589600 -11.527897
							CHANNELS 3 Xrotation Yrotation Zrotation
							JOINT RightArm
							{
								OFFSET 6.261807 -6.124649 -13.486504
								CHANNELS 3 Xrotation Yrotation Zrotation
								JOINT RightForearm
								{
									OFFSET -3.586364 -13.984001 -25.617397
									CHANNELS 3 Xrotation Yrotation Zrotation
									JOINT RightHand
									{
										OFFSET -15.665901 -2.197998 -19.265198
										CHANNELS 3 Xrotation Yrotation Zrotation
										End Site
										{
											OFFSET 0.000000 0.099998 0.000000
										}
									}
								}
							}
						}
						JOINT LeftShoulder
						{
							OFFSET -9.745831 15.307495 -5.329937
							CHANNELS 3 Xrotation Yrotation Zrotation
							JOINT LeftArm
							{
								OFFSET -6.681286 3.334656 14.242400
								CHANNELS 3 Xrotation Yrotation Zrotation
								JOINT LeftForearm
								{
									OFFSET 8.206514 -13.225693 24.947897
									CHANNELS 3 Xrotation Yrotation Zrotation
									JOINT LeftHand
									{
										OFFSET -15.620705 -17.996201 -7.316578
										CHANNELS 3 Xrotation Yrotation Zrotation
										End Site
										{
											OFFSET 0.000000 0.099998 0.000000
										}
									}
								}
							}
						}
					}
				}
			}
			JOINT RightUpLeg
			{
				OFFSET 4.709320 -0.432343 -8.306290
				CHANNELS 3 Xrotation Yrotation Zrotation
				JOINT RightLeg
				{
					OFFSET -9.661633 -41.196602 -15.384899
					CHANNELS 3 Xrotation Yrotation Zrotation
					JOINT RightFoot
					{
						OFFSET 6.294162 -39.390301 10.215700
						CHANNELS 3 Xrotation Yrotation Zrotation
						JOINT RightToe
						{
							OFFSET -7.786212 -6.879600 -14.703199
							CHANNELS 3 Xrotation Yrotation Zrotation
							End Site
							{
								OFFSET 0.000000 0.100000 0.000000
							}
						}
					}
				}
			}
			JOINT LeftUpLeg
			{
				OFFSET -4.709320 0.432343 8.306280
				CHANNELS 3 Xrotation Yrotation Zrotation
				JOINT LeftLeg
				{
					OFFSET -14.158995 -39.629002 16.008404
					CHANNELS 3 Xrotation Yrotation Zrotation
					JOINT LeftFoot
					{
						OFFSET 7.749592 -36.545601 17.318697
						CHANNELS 3 Xrotation Yrotation Zrotation
						JOINT LeftToe
						{
							OFFSET -11.961399 -12.818400 4.093060
							CHANNELS 3 Xrotation Yrotation Zrotation
							End Site
							{
								OFFSET 0.000000 0.100000 0.000000
							}
						}
					}
				}
			}
		}
	}
}
MOTION
Frames: 11
Frame Time: 0.041667
-8.949336 0.000000 -42.203300 -0.000000 0.000000 -0.000000 0.263888 -3.076201 0.286459 0.722618 0.178388 0.399777 -0.093512 0.466544 -0.822463 -0.277421 0.691079 -1.280249 -0.250491 0.331799 -0.918631 0.181232 0.273070 0.320561 0.000026 0.437282 0.729297 0.887368 -0.372148 0.499746 -1.217700 0.503916 1.588925 0.215033 0.333876 -0.213138 0.105106 0.059771 -0.025874 0.672384 -0.075598 0.372658 0.201141 0.151373 1.965466 -0.183003 0.110294 0.118902 -0.122046 -0.147509 -0.157027 -6.414514 3.371881 3.136078 -20.603346 -2.273841 12.670616 -31.010158 8.760227 -0.745837 48.173481 -2.836760 -6.116603 33.016602 13.577503 -3.713263 -0.077220 0.275697 0.616733 -7.289550 -18.876944 -30.900575 -18.527037 -4.752011 22.232611 
-9.364907 0.000000 -44.645302 -0.000000 0.000000 -0.000000 0.183254 -3.458589 0.181387 0.712647 0.175644 0.394280 -0.172743 0.514756 -0.752196 -0.390234 0.757340 -1.188650 -0.330090 0.376797 -0.860680 0.196179 0.176725 0.174408 0.139391 0.306645 0.470783 0.738687 -0.291946 0.408244 -0.672459 0.189721 1.038692 0.333858 0.517199 -0.330910 0.340911 0.105597 0.272990 0.639169 -0.197828 0.392231 0.149335 -0.147958 2.115370 0.184342 -0.111622 -0.119571 -0.185157 -0.255130 -0.163157 -1.578263 3.515601 2.173439 -25.459527 -3.484133 15.543742 -34.614514 11.473694 1.196027 39.334592 -2.998503 -0.229860 32.148485 13.798469 -3.481449 -0.143977 0.505295 1.132085 -8.155500 -18.810375 -31.803888 -18.836502 -4.859206 22.297084 
-10.014808 0.000000 -48.963600 -0.000000 0.000000 -0.000000 0.373042 -3.989148 0.066861 0.648537 0.159843 0.358864 -0.375248 0.495255 -0.725403 -0.660942 0.689002 -1.132745 -0.507668 0.317543 -0.812421 0.213796 0.236170 0.141974 0.175626 0.421454 0.447991 0.640640 -0.063878 0.284025 -0.414112 -0.230523 0.657012 0.700906 1.078274 -0.694779 0.541692 0.175993 0.618726 0.730381 -0.018314 0.385670 -0.177613 -0.473001 2.231158 0.009070 -0.005475 -0.005881 -0.076572 -0.063513 -0.090904 6.009635 2.721619 0.935405 -28.066760 -4.239796 17.056384 -24.365590 1.039224 -0.663338 18.764527 -0.784303 -8.142682 30.146324 15.503221 -2.615014 -0.068039 0.243537 0.544671 -9.580033 -19.477823 -32.872543 -19.784362 -5.193299 22.078262 
-10.429708 0.000000 -51.134399 -0.000000 0.000000 -0.000000 0.490596 -4.033125 0.046403 0.616597 0.151661 0.341231 -0.459235 0.444557 -0.702466 -0.766966 0.603097 -1.084543 -0.572811 0.257039 -0.770609 0.262564 0.260326 0.098587 0.281896 0.482386 0.413530 0.693292 -0.040226 0.296989 -0.369450 -0.093143 0.698716 0.660896 1.017491 -0.655100 0.458206 0.165589 0.548366 0.735798 0.035704 0.372067 -0.374518 -0.296473 2.093296 -0.229100 0.137982 0.148888 -0.012804 0.063371 -0.053501 9.294154 2.175395 0.791823 -25.965266 -3.624923 15.838913 -22.016686 0.632820 -1.295888 14.715564 -0.121442 -7.928786 29.063397 15.944397 -2.187047 -0.041037 0.147950 0.330691 -10.295611 -19.760400 -33.204090 -20.656915 -5.451974 21.336082 
-10.806208 0.000000 -53.216301 -0.000000 0.000000 -0.000000 0.572333 -4.014641 0.045064 0.584646 0.143915 0.323567 -0.569263 0.432181 -0.668370 -0.913610 0.568733 -1.027408 -0.668905 0.229173 -0.726599 0.380077 0.210241 0.017934 0.545835 0.427045 0.343332 0.545299 0.078147 0.192758 0.212296 -0.120293 1.067847 0.520485 0.803465 -0.515909 0.303301 0.142586 0.372575 0.802435 0.086282 0.391557 -0.393844 -0.155166 1.883767 -0.452769 0.271922 0.294562 0.032917 0.143418 -0.019271 11.801748 1.717575 0.815316 -21.684773 -2.521104 13.316028 -20.933674 1.431769 -2.208913 11.616602 0.073603 -6.003744 27.990546 16.266495 -1.838719 -0.028613 0.103535 0.231303 -10.567203 -20.063413 -33.533186 -19.822882 -5.039953 21.437194 
-11.183007 0.000000 -55.276699 -0.000000 0.000000 -0.000000 0.546178 -3.949372 0.041873 0.552805 0.135874 0.305974 -0.636988 0.432751 -0.628233 -1.003260 0.558655 -0.966649 -0.728048 0.221860 -0.683300 0.462103 0.154714 -0.048654 0.741241 0.354146 0.271971 0.367614 0.177312 0.084062 0.761306 -0.292631 1.408248 0.410624 0.635191 -0.406990 0.168947 0.113892 0.228185 0.841153 0.135084 0.396842 -0.437725 -0.082423 1.717338 -0.538621 0.323117 0.350548 0.059376 0.172135 0.005478 13.339640 1.480175 1.172775 -15.442390 -1.269746 9.552913 -20.372581 1.815962 -2.655283 6.804021 0.121677 -2.413911 26.975892 16.579210 -1.547946 -0.020108 0.072913 0.162856 -10.515782 -20.433411 -33.777031 -18.814986 -4.584388 21.743767 
-11.599810 0.000000 -57.319099 -0.000000 0.000000 -0.000000 0.393896 -3.827268 0.016330 0.521020 0.128021 0.288403 -0.646520 0.438748 -0.580386 -1.012953 0.564873 -0.899285 -0.734177 0.231507 -0.638295 0.491118 0.106307 -0.084946 0.825253 0.279906 0.218040 0.194145 0.233895 -0.006589 1.150134 -0.619198 1.613630 0.366399 0.567251 -0.363156 0.086407 0.082420 0.157813 0.834974 0.174335 0.381426 -0.549451 -0.093506 1.602651 -0.481086 0.288821 0.313003 0.080282 0.172535 0.024327 13.835371 1.388237 1.859058 -7.491104 -0.291614 4.660255 -19.927558 1.835999 -2.303619 0.972817 -0.044866 1.712151 26.020938 16.890766 -1.283967 -0.014272 0.051814 0.115741 -10.207440 -20.868149 -33.939514 -18.346322 -4.384062 22.126246 
-12.103109 0.000000 -59.420700 -0.000000 0.000000 -0.000000 0.124524 -3.596952 -0.082061 0.489317 0.120142 0.270879 -0.601664 0.444479 -0.508114 -0.946801 0.582581 -0.801010 -0.689384 0.256749 -0.574713 0.497892 0.052335 -0.083915 0.850286 0.182570 0.210335 0.005236 0.251241 -0.088507 1.395553 -1.094718 1.609484 0.382236 0.591610 -0.378868 0.061638 0.043583 0.160584 0.788809 0.161708 0.361100 -0.715133 -0.189944 1.438165 -0.391677 0.235419 0.254747 0.165011 0.260294 0.061202 13.380995 2.627247 3.236904 1.725971 -0.019345 -1.075352 -19.607291 2.241792 -2.534978 0.680417 -0.054631 2.003861 25.092662 17.118435 -0.992415 -0.016981 0.061647 0.137711 -9.840091 -21.323564 -34.084785 -20.203283 -5.242817 22.584140 
-12.621909 0.000000 -61.559200 -0.000000 0.000000 -0.000000 -0.233532 -3.154943 -0.268194 0.457717 0.112227 0.253413 -0.512962 0.408264 -0.454222 -0.815175 0.544711 -0.721601 -0.596697 0.247391 -0.520099 0.502553 -0.012352 -0.021650 0.838715 0.049024 0.299538 -0.116943 0.252754 -0.137717 1.533056 -1.600715 1.694912 0.428135 0.662068 -0.424362 0.048042 0.024198 0.185351 0.760252 0.153338 0.348743 -0.909567 -0.259931 1.289577 -0.334918 0.201435 0.217768 0.216041 0.318592 0.094789 12.737509 3.694218 5.180109 10.111985 -0.574629 -6.279900 -18.770617 2.241068 -2.859607 1.061623 -0.047508 1.868355 24.119290 17.155948 -0.545956 -0.030827 0.111441 0.249026 -9.349733 -21.774833 -34.288110 -21.382150 -5.778197 22.810533 
-13.141410 0.000000 -63.594101 -0.000000 0.000000 -0.000000 -0.641348 -2.550093 -0.512286 0.426179 0.104519 0.235970 -0.392799 0.344086 -0.420375 -0.637025 0.468384 -0.665396 -0.470229 0.213168 -0.478493 0.515427 -0.087713 0.072450 0.826196 -0.110762 0.442919 -0.172413 0.249739 -0.158627 1.605326 -2.116128 1.876454 0.489225 0.755662 -0.484928 0.042939 0.027879 0.223852 0.747621 0.153583 0.342080 -1.107088 -0.271707 1.133189 -0.332541 0.200029 0.216222 0.226489 0.336763 0.121996 12.221218 3.617473 7.024139 16.449227 -1.502656 -10.160129 -17.373329 2.254214 -3.062492 1.103544 -0.048672 1.942107 23.079860 17.167332 -0.064233 -0.054311 0.195118 0.436199 -8.730769 -22.368557 -34.491079 -21.474226 -5.787659 22.823979 
-13.741710 0.000000 -67.704201 -0.000000 0.000000 -0.000000 -1.245254 -1.719922 -0.772041 0.295499 0.072335 0.163671 -0.152947 0.399311 -0.321966 -0.298130 0.552245 -0.542640 -0.245032 0.303153 -0.408826 0.582929 -0.238034 -0.001193 1.023839 -0.342809 0.317009 -0.289706 0.264985 -0.210536 1.799011 -3.203305 1.704304 0.569836 0.878794 -0.564819 0.148881 0.048529 0.383981 0.617518 0.090315 0.293274 -1.400827 -0.104214 0.427689 -0.435875 0.261840 0.283532 0.301690 0.424471 0.163277 11.924033 0.097975 6.966237 19.732254 -2.155786 -12.140742 -16.620572 2.192464 -2.937648 1.181396 -0.050699 2.079072 20.635065 17.225787 0.353151 -0.098794 0.350786 0.785065 -7.252682 -23.406859 -34.591128 -21.961853 -5.962047 22.916777 
